# xmcd
#
# Track frame offsets:
#	150
#	88052
#	119250
#	138013
#	164150
#	194967
#	218336
#
# Disc length: 3213 seconds
#
# Revision: 1
# Processed by: cddbd v1.5.2PL0 Copyright (c) Steve Scherf et al.
# Submitted via: audiograbber 1.83.01
#
DISCID=640c8b07
DTITLE=Grateful Dead - 72-09-09 Hollywood Palladium, Hollywood CA
DYEAR=1900
DGENRE=
TTITLE0=Playing In The Band
TTITLE1=Loser
TTITLE2=Johnny B Goode
TTITLE3=China Cat Sunflower
TTITLE4=I Know You Rider
TTITLE5=Friend Of The Devil
TTITLE6=Jack Straw
EXTD=
EXTT0=
EXTT1=
EXTT2=
EXTT3=
EXTT4=
EXTT5=
EXTT6=
PLAYORDER=
